<svg width="165" height="123" viewBox="0 0 165 123" fill="none" xmlns="http://www.w3.org/2000/svg">
<path fill-rule="evenodd" clip-rule="evenodd" d="M40.6487 5.10117C45.1944 2.07013 50.5357 0.452717 55.9992 0.45285H109.001C114.461 0.454902 119.798 2.07222 124.341 5.10117L131.813 10.0829C133.22 11.0205 134.874 11.4884 136.556 11.6556C142.583 12.2548 148.273 14.8193 152.729 18.991C157.818 23.7556 160.92 30.2654 161.416 37.2188L164.958 86.7566C165.191 90.0313 164.448 93.3017 162.823 96.1542C161.198 99.0067 158.763 101.313 155.827 102.782L132.697 114.348C130.04 115.678 127.245 116.713 124.363 117.436C96.8724 124.298 68.1169 124.298 40.6266 117.436C37.7443 116.713 34.9498 115.678 32.2928 114.348L9.16189 102.782C6.22798 101.312 3.7958 99.0043 2.17263 96.152C0.54946 93.2996 -0.19186 90.0301 0.0423296 86.7566L3.58391 37.2188C4.07999 30.2673 7.18114 23.759 12.2676 18.9947C16.7214 14.823 22.4101 12.2575 28.4351 11.6565C30.1159 11.4888 31.7691 11.0209 33.1746 10.0839L40.6487 5.10117ZM38.225 66.8574C35.1688 66.8574 32.6912 64.3799 32.6912 61.3237V61.3237C32.6912 58.2675 30.2137 55.79 27.1575 55.79V55.79C24.1013 55.79 21.6238 53.3125 21.6238 50.2563V50.2563C21.6238 47.2001 24.1013 44.7226 27.1575 44.7226V44.7226C30.2137 44.7226 32.6912 42.245 32.6912 39.1888V39.1888C32.6912 36.1327 35.1688 33.6551 38.225 33.6551V33.6551C41.2811 33.6551 43.7587 36.1327 43.7587 39.1888V39.1888C43.7587 42.245 46.2362 44.7226 49.2924 44.7226V44.7226C52.3486 44.7226 54.8261 47.2001 54.8261 50.2563V50.2563C54.8261 53.3125 52.3486 55.79 49.2924 55.79V55.79C46.2362 55.79 43.7587 58.2675 43.7587 61.3237V61.3237C43.7587 64.3799 41.2811 66.8574 38.225 66.8574V66.8574ZM143.366 50.2563C143.366 53.3125 140.888 55.79 137.832 55.79V55.79C134.776 55.79 132.298 53.3125 132.298 50.2563V50.2563C132.298 47.2001 134.776 44.7226 137.832 44.7226V44.7226C140.888 44.7226 143.366 47.2001 143.366 50.2563V50.2563ZM121.231 72.3911C121.231 75.4473 123.708 77.9248 126.764 77.9248V77.9248C129.821 77.9248 132.298 75.4473 132.298 72.3911V72.3911C132.298 69.3349 129.821 66.8574 126.764 66.8574V66.8574C123.708 66.8574 121.231 69.3349 121.231 72.3911V72.3911Z" fill="url(#paint0_linear_212_4)"/>
<defs>
<linearGradient id="paint0_linear_212_4" x1="48" y1="23.5" x2="82.5" y2="122.582" gradientUnits="userSpaceOnUse">
<stop stop-color="#BFAFED"/>
<stop offset="1" stop-color="#9542FF"/>
</linearGradient>
</defs>
</svg>
