<svg width="416" height="362" viewBox="0 0 416 362" fill="none" xmlns="http://www.w3.org/2000/svg">
<path fill-rule="evenodd" clip-rule="evenodd" d="M120.714 13.778C134.214 4.79372 150.076 -0.00039462 166.301 2.43627e-08H323.7C339.914 0.00608063 355.764 4.79992 369.254 13.778L395.694 31.3714C397.099 32.3064 398.748 32.7972 400.435 32.8594C420.202 33.5884 439.077 41.4152 453.558 54.9484C468.67 69.0709 477.884 88.3666 479.358 108.977L489.875 255.811C490.568 265.517 488.362 275.211 483.535 283.666C478.709 292.12 471.479 298.957 462.76 303.312L394.068 337.593C386.178 341.535 377.879 344.604 369.32 346.745C287.682 367.085 202.286 367.085 120.649 346.745C112.089 344.604 103.79 341.535 95.8999 337.593L27.208 303.312C18.4952 298.953 11.2724 292.114 6.45205 283.659C1.63173 275.204 -0.569766 265.514 0.125706 255.811L10.6431 108.977C12.1163 88.3722 21.3258 69.0812 36.4309 54.9595C50.906 41.4268 69.7733 33.5966 89.535 32.8603C91.2205 32.7975 92.8684 32.3068 94.2726 31.3724L120.714 13.778ZM105.727 196.828C100.953 196.828 97.0831 192.958 97.0831 188.184V172.667C97.0831 167.893 93.2132 164.023 88.4394 164.023H72.8598C68.0861 164.023 64.2162 160.153 64.2162 155.38V139.862C64.2162 135.088 68.0861 131.219 72.8598 131.219H88.4394C93.2132 131.219 97.0831 127.349 97.0831 122.575V107.058C97.0831 102.284 100.953 98.4139 105.727 98.4139H121.306C126.08 98.4139 129.95 102.284 129.95 107.058V122.575C129.95 127.349 133.82 131.219 138.594 131.219H154.173C158.947 131.219 162.817 135.088 162.817 139.862V155.38C162.817 160.153 158.947 164.023 154.173 164.023H138.594C133.82 164.023 129.95 167.893 129.95 172.667V188.184C129.95 192.958 126.08 196.828 121.306 196.828H105.727ZM425.752 155.38C425.752 160.153 421.882 164.023 417.108 164.023H401.529C396.755 164.023 392.885 160.153 392.885 155.38V139.862C392.885 135.088 396.755 131.219 401.529 131.219H417.108C421.882 131.219 425.752 135.088 425.752 139.862V155.38ZM360.018 220.989C360.018 225.763 363.888 229.632 368.662 229.632H384.242C389.015 229.632 392.885 225.763 392.885 220.989V205.471C392.885 200.698 389.015 196.828 384.242 196.828H368.662C363.888 196.828 360.018 200.698 360.018 205.471V220.989Z" fill="#121212"/>
</svg>
